<svg width="24" height="24" viewBox="0 0 24 24" fill="none" xmlns="http://www.w3.org/2000/svg">
<g clip-path="url(#clip0_5_163)">
<path d="M19 13C19 14.5913 18.3679 16.1174 17.2426 17.2426C16.1174 18.3679 14.5913 19 13 19H5.75C5.55109 19 5.36032 18.921 5.21967 18.7803C5.07902 18.6397 5 18.4489 5 18.25C5 18.0511 5.07902 17.8603 5.21967 17.7197C5.36032 17.579 5.55109 17.5 5.75 17.5H13C14.1935 17.5 15.3381 17.0259 16.182 16.182C17.0259 15.3381 17.5 14.1935 17.5 13C17.5 11.8065 17.0259 10.6619 16.182 9.81802C15.3381 8.97411 14.1935 8.5 13 8.5H7.56L8.28 9.22C8.42045 9.36063 8.49934 9.55125 8.49934 9.75C8.49934 9.94875 8.42045 10.1394 8.28 10.28C8.13937 10.4205 7.94875 10.4993 7.75 10.4993C7.55125 10.4993 7.36063 10.4205 7.22 10.28L5.22 8.28C5.07955 8.13938 5.00066 7.94875 5.00066 7.75C5.00066 7.55125 5.07955 7.36063 5.22 7.22L7.22 5.22C7.28866 5.14631 7.37146 5.08721 7.46346 5.04622C7.55546 5.00523 7.65477 4.98319 7.75548 4.98141C7.85618 4.97963 7.95621 4.99816 8.0496 5.03588C8.14299 5.0736 8.22782 5.12974 8.29904 5.20096C8.37026 5.27218 8.4264 5.35701 8.46412 5.4504C8.50184 5.54379 8.52037 5.64382 8.51859 5.74452C8.51682 5.84523 8.49477 5.94454 8.45378 6.03654C8.41279 6.12854 8.35369 6.21134 8.28 6.28L7.56 7H13C14.5913 7 16.1174 7.63214 17.2426 8.75736C18.3679 9.88258 19 11.4087 19 13Z" fill="#D8A353"/>
</g>
<defs>
<clipPath id="clip0_5_163">
<rect width="24" height="24" fill="white"/>
</clipPath>
</defs>
</svg>
